<svg xmlns="http://www.w3.org/2000/svg" xmlns:xlink="http://www.w3.org/1999/xlink" aria-hidden="true" role="img" class="iconify iconify--logos" width="31.88" height="32" preserveAspectRatio="xMidYMid meet" viewBox="0 0 256 257"><defs><linearGradient id="IconifyId1813088fe1fbc01fb466" x1="-.828%" x2="57.636%" y1="7.652%" y2="78.411%"><stop offset="0%" stop-color="#FF00DC"></stop><stop offset="100%" stop-color="#FF00DC"></stop></linearGradient><linearGradient id="IconifyId1813088fe1fbc01fb467" x1="43.376%" x2="50.316%" y1="2.242%" y2="89.03%"><stop offset="0%" stop-color="#FFEA00"></stop><stop offset="100%" stop-color="#FFFF00"></stop></linearGradient></defs><path fill="url(#IconifyId1813088fe1fbc01fb466)" d="M255.153 37.938L134.897 252.976c-2.883 5.084-10.111 5.084-12.993 0L.846 37.938c-2.882-5.084-.849-11.056 4.915-13.039l118.552-35.256c4.667-1.388 9.754-1.388 14.421 0l118.553 35.256c5.763 1.983 7.996 7.955 4.914 13.039Z"></path><path fill="url(#IconifyId1813088fe1fbc01fb467)" d="M185.432.063L96.44 17.557l63.168 106.802c1.441 2.433 4.169 2.433 5.61 0l63.168-106.802L185.432.063Z"></path></svg>